<!-- Generated by IcoMoon.io -->
<svg version="1.1" xmlns="http://www.w3.org/2000/svg" width="32" height="32" viewBox="0 0 32 32">
<title>bold</title>
<path d="M4.267 31.043v-4.034h2.465v-22.86l-2.465 0.001v-4.034h11.579c4.625 0 8.367 3.742 8.367 8.367 0 2.042-0.73 3.912-1.943 5.364 2.919 1.525 4.931 4.588 4.931 8.083 0 4.908-3.967 8.964-8.842 9.11l-0.272 0.004h-13.82zM10.765 27.009h7.322c2.771 0 5.080-2.309 5.080-5.080 0-2.696-2.186-4.955-4.856-5.075l-0.224-0.005-7.322-0.001v10.16zM10.765 12.815l5.081 0.001c2.397 0 4.333-1.936 4.333-4.333 0-2.324-1.82-4.215-4.116-4.327l-0.217-0.005-5.081-0.001v8.666z"></path>
</svg>
