<!-- Generated by IcoMoon.io -->
<svg version="1.1" xmlns="http://www.w3.org/2000/svg" width="32" height="32" viewBox="0 0 32 32">
<title>calendar</title>
<path d="M30.089 27.915c0 0.767-0.622 1.389-1.389 1.389h-25.111c-0.927 0-1.678-0.751-1.678-1.678v-18.006h28.178v18.295zM8.621 15.547h-2.431c-0.384 0-0.695-0.311-0.695-0.695v-2.431c0-0.384 0.311-0.695 0.695-0.695h2.431c0.383 0 0.695 0.311 0.695 0.695v2.431c0 0.383-0.311 0.695-0.695 0.695zM14.351 15.547h-2.431c-0.384 0-0.695-0.311-0.695-0.695v-2.431c0-0.384 0.311-0.695 0.695-0.695h2.431c0.383 0 0.695 0.311 0.695 0.695v2.431c0 0.383-0.311 0.695-0.695 0.695zM20.080 15.547h-2.431c-0.384 0-0.695-0.311-0.695-0.695v-2.431c0-0.384 0.311-0.695 0.695-0.695h2.431c0.383 0 0.695 0.311 0.695 0.695v2.431c0 0.383-0.311 0.695-0.695 0.695zM25.809 15.547h-2.431c-0.384 0-0.695-0.311-0.695-0.695v-2.431c0-0.384 0.311-0.695 0.695-0.695h2.431c0.383 0 0.695 0.311 0.695 0.695v2.431c0 0.383-0.311 0.695-0.695 0.695zM8.621 21.277h-2.431c-0.384 0-0.695-0.311-0.695-0.695v-2.431c0-0.384 0.311-0.695 0.695-0.695h2.431c0.383 0 0.695 0.311 0.695 0.695v2.431c0 0.383-0.311 0.695-0.695 0.695zM20.080 21.277h-2.431c-0.384 0-0.695-0.311-0.695-0.695v-2.431c0-0.384 0.311-0.695 0.695-0.695h2.431c0.383 0 0.695 0.311 0.695 0.695v2.431c0 0.383-0.311 0.695-0.695 0.695zM25.809 21.277h-2.431c-0.384 0-0.695-0.311-0.695-0.695v-2.431c0-0.384 0.311-0.695 0.695-0.695h2.431c0.383 0 0.695 0.311 0.695 0.695v2.431c0 0.383-0.311 0.695-0.695 0.695zM8.621 27.197h-2.431c-0.384 0-0.695-0.311-0.695-0.695v-2.431c0-0.384 0.311-0.695 0.695-0.695h2.431c0.383 0 0.695 0.311 0.695 0.695v2.431c0 0.383-0.311 0.695-0.695 0.695zM14.351 27.197h-2.431c-0.384 0-0.695-0.311-0.695-0.695v-2.431c0-0.384 0.311-0.695 0.695-0.695h2.431c0.383 0 0.695 0.311 0.695 0.695v2.431c0 0.383-0.311 0.695-0.695 0.695zM20.080 27.197h-2.431c-0.384 0-0.695-0.311-0.695-0.695v-2.431c0-0.384 0.311-0.695 0.695-0.695h2.431c0.383 0 0.695 0.311 0.695 0.695v2.431c0 0.383-0.311 0.695-0.695 0.695zM14.351 21.253h-2.431c-0.384 0-0.695-0.311-0.695-0.695v-2.431c0-0.384 0.311-0.695 0.695-0.695h2.431c0.383 0 0.695 0.311 0.695 0.695v2.431c0 0.383-0.311 0.695-0.695 0.695zM7.682 2.734c1.071 0 1.939 0.869 1.939 1.94s-0.869 1.94-1.939 1.94c-1.071 0-1.94-0.869-1.94-1.94s0.869-1.94 1.94-1.94v0zM23.737 2.734c1.071 0 1.94 0.869 1.94 1.94s-0.869 1.94-1.94 1.94c-1.071 0-1.94-0.869-1.94-1.94s0.869-1.94 1.94-1.94v0zM29.567 0.5h-27.133c-1.344 0-2.433 1.089-2.433 2.433v25.74c0 1.344 1.089 2.433 2.433 2.433h27.133c1.344 0 2.433-1.089 2.433-2.433v-25.74c0-1.344-1.090-2.433-2.433-2.433v0z"></path>
</svg>
