<!-- Generated by IcoMoon.io -->
<svg version="1.1" xmlns="http://www.w3.org/2000/svg" width="26" height="32" viewBox="0 0 26 32">
<title>copy</title>
<path d="M11.861 0.678c1.859 0 3.388 1.456 3.506 3.286l7.677 0.001v9.312l2.8 0.001v18.044h-16.644l-0.001-2.8h-8.521v-24.558l7.677-0.001c0.118-1.83 1.647-3.286 3.506-3.286zM23.199 15.922h-11.356l0.001 12.6h-0.001v0.155h11.356v-12.755zM19.804 24.596v2.022h-6.574v-2.022h6.574zM5.608 6.609h-2.286v19.268h5.877l0.001-12.599 11.199-0.001v-6.668h-2.286l0.001 0.869c0 1.28-1 2.331-2.259 2.413l-0.159 0.005h-7.67c-1.28 0-2.331-1-2.413-2.259l-0.005-0.159v-0.869zM21.996 21.485v2.022h-8.765v-2.022h8.765zM21.996 18.374v2.022h-8.765v-2.022h8.765zM15.469 6.609h-7.217v0.642h7.217v-0.642zM11.861 3.322c-0.396 0-0.736 0.275-0.838 0.641h1.676c-0.102-0.367-0.442-0.641-0.838-0.641z"></path>
</svg>
