<!-- Generated by IcoMoon.io -->
<svg version="1.1" xmlns="http://www.w3.org/2000/svg" width="28" height="32" viewBox="0 0 28 32">
<title>cut</title>
<path d="M5.154 0.853c-2.028 1.419-2.562 4.242-1.142 6.269l7.302 10.425-2.656 3.791c-2.438-1.412-5.593-0.748-7.239 1.603-1.738 2.482-1.135 5.901 1.347 7.639s5.904 1.135 7.642-1.347c1.193-1.703 1.282-3.848 0.419-5.588l3.252-4.643 3.252 4.643c-0.863 1.74-0.773 3.885 0.419 5.588 1.739 2.482 5.16 3.084 7.642 1.347s3.086-5.158 1.348-7.639c-1.646-2.35-4.801-3.014-7.239-1.603l-2.656-3.791 7.302-10.425c1.42-2.028 0.886-4.85-1.142-6.269l-8.926 12.745-8.927-12.745zM8.771 26.076c0 1.57-1.274 2.844-2.844 2.844s-2.844-1.273-2.844-2.844c0-1.571 1.274-2.844 2.844-2.844s2.844 1.273 2.844 2.844zM25.079 26.076c0 1.57-1.274 2.844-2.844 2.844s-2.844-1.273-2.844-2.844c0-1.571 1.274-2.844 2.844-2.844s2.844 1.273 2.844 2.844z"></path>
</svg>
