<!-- Generated by IcoMoon.io -->
<svg version="1.1" xmlns="http://www.w3.org/2000/svg" width="32" height="32" viewBox="0 0 32 32">
<title>EU</title>
<path d="M31.965 0.682v22.013c0 5.214-4.414 8.622-11.781 8.622v0h-20.501v-30.635h32.282zM29.329 3.317h-27.012v25.365h17.866c5.923 0 9.025-2.308 9.143-5.781v0l0.003-0.206v-19.379zM14.415 21.359l5.061 2.615-5.061 2.615v-1.798h-8.474v-1.636h8.474v-1.798zM18.777 6.941v6.14c0 0.974 0.028 1.606 0.085 1.895 0.098 0.464 0.331 0.836 0.7 1.117s0.872 0.421 1.512 0.421c0.65 0 1.139-0.133 1.469-0.398s0.528-0.592 0.595-0.978c0.054-0.309 0.086-0.782 0.096-1.418l0.004-6.779h2.289v5.954l-0.015 1.069c-0.025 0.809-0.082 1.414-0.17 1.816-0.124 0.562-0.352 1.036-0.684 1.423s-0.777 0.695-1.334 0.924c-0.557 0.229-1.284 0.344-2.181 0.344-1.083 0-1.904-0.125-2.463-0.375s-1.001-0.575-1.326-0.974c-0.325-0.4-0.539-0.818-0.642-1.257-0.149-0.65-0.224-1.608-0.224-2.877v-6.047h2.289zM14.347 6.941v1.918h-6.117v2.513h5.691v1.91h-5.691v3.085h6.333v1.91h-8.622v-11.336h8.405z"></path>
</svg>
