<!-- Generated by IcoMoon.io -->
<svg version="1.1" xmlns="http://www.w3.org/2000/svg" width="32" height="32" viewBox="0 0 32 32">
<title>format_list_bulleted</title>
<path d="M2.521 13.085c-1.395 0-2.521 1.126-2.521 2.521s1.126 2.521 2.521 2.521c1.395 0 2.521-1.126 2.521-2.521s-1.126-2.521-2.521-2.521zM2.521 3c-1.395 0-2.521 1.126-2.521 2.521s1.126 2.521 2.521 2.521c1.395 0 2.521-1.126 2.521-2.521s-1.126-2.521-2.521-2.521zM2.521 23.17c-1.395 0-2.521 1.143-2.521 2.521s1.143 2.521 2.521 2.521c1.378 0 2.521-1.143 2.521-2.521s-1.126-2.521-2.521-2.521zM7.564 27.372h23.531v-3.362h-23.531v3.362zM7.564 17.287h23.531v-3.362h-23.531v3.362zM7.564 3.84v3.362h23.531v-3.362h-23.531z"></path>
</svg>
