<!-- Generated by IcoMoon.io -->
<svg version="1.1" xmlns="http://www.w3.org/2000/svg" width="33" height="32" viewBox="0 0 33 32">
<title>fullscreen</title>
<path d="M11.746 19.103l1.781 1.781-8.487 8.486 6.077 0.001v2.519h-10.376v-10.376h2.519l-0.001 6.076 8.487-8.486zM21.916 19.137l7.694 8.286 0.001-5.91h2.519v10.376h-10.376v-2.519l6.229-0.001-7.911-8.519 1.846-1.714zM32.129 0.424v10.452h-2.519l-0.001-6.138-8.483 8.545-1.787-1.774 8.505-8.566-6.092 0.001v-2.519h10.376zM11.117 0.424v2.519l-6.093-0.001 8.506 8.566-1.787 1.774-8.484-8.545 0.001 6.138h-2.519v-10.452h10.376z"></path>
</svg>
