<!-- Generated by IcoMoon.io -->
<svg version="1.1" xmlns="http://www.w3.org/2000/svg" width="32" height="32" viewBox="0 0 32 32">
<title>history</title>
<path d="M16 0.678c8.461 0 15.322 6.862 15.322 15.322s-6.862 15.322-15.322 15.322c-8.355 0-15.15-6.691-15.319-15.006l-0.003-0.316h2.644c0 7 5.678 12.678 12.678 12.678s12.678-5.678 12.678-12.678c0-7-5.678-12.678-12.678-12.678-5.103 0-7.983 1.955-11.472 6.789l4.776 0.001v2.644h-8.627v-8.627h2.644v3.184c3.59-4.586 7.037-6.636 12.678-6.636zM17.931 6.87v12.279h-8.627v-2.644l5.982-0.001v-9.633h2.644z"></path>
</svg>
