<svg aria-hidden="true" style="position: absolute; width: 0; height: 0; overflow: hidden;" version="1.1" xmlns="http://www.w3.org/2000/svg" xmlns:xlink="http://www.w3.org/1999/xlink">
<defs>
<symbol id="icon-add-comment" viewBox="0 0 32 32">
<title>add-comment</title>
<path d="M28.8 0c1.76 0 3.2 1.44 3.2 3.2v0 28.8l-6.4-6.4h-22.4c-1.76 0-3.2-1.44-3.2-3.2v0-19.2c0-1.76 1.44-3.2 3.2-3.2v0zM17.6 4.8h-3.2v6.4h-6.4v3.2h6.4v6.4h3.2v-6.4h6.4v-3.2h-6.4v-6.4z"></path>
</symbol>
<symbol id="icon-add-table" viewBox="0 0 32 32">
<title>add-table</title>
<path d="M31.8 3.533v25.223h-31.6v-25.223h31.6zM8.866 14.466h-6.4v12.023h6.4v-12.023zM29.533 14.466h-18.4v12.023h18.4v-12.023zM29.533 5.8h-27.067v6.4h27.067v-6.4z"></path>
</symbol>
<symbol id="icon-arrow-double-left" viewBox="0 0 32 32">
<title>arrow-double-left</title>
<path d="M18.626 3.71l-11.023 12.29 11.023 12.29-4.257 3.463-14.123-15.753 1.549-1.732 12.573-14.023z"></path>
<path d="M31.754 3.71l-11.023 12.29 11.023 12.29-4.257 3.463-14.123-15.753 1.549-1.732 12.573-14.023z"></path>
</symbol>
<symbol id="icon-arrow-double-right" viewBox="0 0 32 32">
<title>arrow-double-right</title>
<path d="M13.538 4.226l10.668 11.894-10.668 11.893 4.119 3.352 13.667-15.245-1.499-1.676-12.168-13.57z"></path>
<path d="M0.834 4.226l10.668 11.894-10.668 11.893 4.119 3.352 13.667-15.245-1.499-1.676-12.168-13.57z"></path>
</symbol>
<symbol id="icon-arrow-down-slimmer" viewBox="0 0 53 32">
<title>arrow-down-slimmer</title>
<path d="M48.713 0.046l4.706 5.948-26.754 24.668-2.284-2.101-24.468-22.568 4.704-5.948 22.049 20.341z"></path>
</symbol>
<symbol id="icon-arrow-down" viewBox="0 0 32 32">
<title>arrow-down</title>
<path d="M28.482 6.5l-12.482 11.196-12.482-11.196-3.518 4.323 15.999 14.343 1.759-1.574 14.242-12.77z"></path>
</symbol>
<symbol id="icon-arrow-left" viewBox="0 0 32 32">
<title>arrow-left</title>
<path d="M25.131 4.226l-10.668 11.894 10.668 11.893-4.119 3.352-13.667-15.245 1.499-1.676 12.168-13.57z"></path>
</symbol>
<symbol id="icon-arrow-right" viewBox="0 0 32 32">
<title>arrow-right</title>
<path d="M7.345 4.226l10.668 11.894-10.668 11.893 4.119 3.352 13.667-15.245-1.499-1.676-12.168-13.57z"></path>
</symbol>
<symbol id="icon-arrow-top-slimmer" viewBox="0 0 53 32">
<title>arrow-top-slimmer</title>
<path d="M48.713 30.663l4.706-5.948-26.754-24.668-2.284 2.101-24.468 22.568 4.704 5.948 22.049-20.341z"></path>
</symbol>
<symbol id="icon-arrow-top" viewBox="0 0 54 32">
<title>arrow-top</title>
<path d="M47.969 31.439l-21.023-18.856-21.022 18.856-5.924-7.281 26.946-24.157 2.963 2.65 23.986 21.507z"></path>
</symbol>
<symbol id="icon-backward" viewBox="0 0 32 32">
<title>backward</title>
<path d="M9.917 17.241l-1.728 1.728-8.584-8.584 8.584-8.584 1.728 1.728-5.634 5.633h17.121c5.77 0 10.485 4.716 10.485 10.485 0 5.675-4.562 10.331-10.203 10.482l-0.283 0.004h-7.719v-2.444h7.719c4.42 0 8.041-3.621 8.041-8.041 0-4.336-3.486-7.904-7.792-8.037l-0.249-0.004-17.121-0.001 5.634 5.634z"></path>
</symbol>
<symbol id="icon-bold" viewBox="0 0 32 32">
<title>bold</title>
<path d="M4.267 31.043v-4.034h2.465v-22.86l-2.465 0.001v-4.034h11.579c4.625 0 8.367 3.742 8.367 8.367 0 2.042-0.73 3.912-1.943 5.364 2.919 1.525 4.931 4.588 4.931 8.083 0 4.908-3.967 8.964-8.842 9.11l-0.272 0.004h-13.82zM10.765 27.009h7.322c2.771 0 5.080-2.309 5.080-5.080 0-2.696-2.186-4.955-4.856-5.075l-0.224-0.005-7.322-0.001v10.16zM10.765 12.815l5.081 0.001c2.397 0 4.333-1.936 4.333-4.333 0-2.324-1.82-4.215-4.116-4.327l-0.217-0.005-5.081-0.001v8.666z"></path>
</symbol>
<symbol id="icon-calendar" viewBox="0 0 32 32">
<title>calendar</title>
<path d="M30.089 27.915c0 0.767-0.622 1.389-1.389 1.389h-25.111c-0.927 0-1.678-0.751-1.678-1.678v-18.006h28.178v18.295zM8.621 15.547h-2.431c-0.384 0-0.695-0.311-0.695-0.695v-2.431c0-0.384 0.311-0.695 0.695-0.695h2.431c0.383 0 0.695 0.311 0.695 0.695v2.431c0 0.383-0.311 0.695-0.695 0.695zM14.351 15.547h-2.431c-0.384 0-0.695-0.311-0.695-0.695v-2.431c0-0.384 0.311-0.695 0.695-0.695h2.431c0.383 0 0.695 0.311 0.695 0.695v2.431c0 0.383-0.311 0.695-0.695 0.695zM20.080 15.547h-2.431c-0.384 0-0.695-0.311-0.695-0.695v-2.431c0-0.384 0.311-0.695 0.695-0.695h2.431c0.383 0 0.695 0.311 0.695 0.695v2.431c0 0.383-0.311 0.695-0.695 0.695zM25.809 15.547h-2.431c-0.384 0-0.695-0.311-0.695-0.695v-2.431c0-0.384 0.311-0.695 0.695-0.695h2.431c0.383 0 0.695 0.311 0.695 0.695v2.431c0 0.383-0.311 0.695-0.695 0.695zM8.621 21.277h-2.431c-0.384 0-0.695-0.311-0.695-0.695v-2.431c0-0.384 0.311-0.695 0.695-0.695h2.431c0.383 0 0.695 0.311 0.695 0.695v2.431c0 0.383-0.311 0.695-0.695 0.695zM20.080 21.277h-2.431c-0.384 0-0.695-0.311-0.695-0.695v-2.431c0-0.384 0.311-0.695 0.695-0.695h2.431c0.383 0 0.695 0.311 0.695 0.695v2.431c0 0.383-0.311 0.695-0.695 0.695zM25.809 21.277h-2.431c-0.384 0-0.695-0.311-0.695-0.695v-2.431c0-0.384 0.311-0.695 0.695-0.695h2.431c0.383 0 0.695 0.311 0.695 0.695v2.431c0 0.383-0.311 0.695-0.695 0.695zM8.621 27.197h-2.431c-0.384 0-0.695-0.311-0.695-0.695v-2.431c0-0.384 0.311-0.695 0.695-0.695h2.431c0.383 0 0.695 0.311 0.695 0.695v2.431c0 0.383-0.311 0.695-0.695 0.695zM14.351 27.197h-2.431c-0.384 0-0.695-0.311-0.695-0.695v-2.431c0-0.384 0.311-0.695 0.695-0.695h2.431c0.383 0 0.695 0.311 0.695 0.695v2.431c0 0.383-0.311 0.695-0.695 0.695zM20.080 27.197h-2.431c-0.384 0-0.695-0.311-0.695-0.695v-2.431c0-0.384 0.311-0.695 0.695-0.695h2.431c0.383 0 0.695 0.311 0.695 0.695v2.431c0 0.383-0.311 0.695-0.695 0.695zM14.351 21.253h-2.431c-0.384 0-0.695-0.311-0.695-0.695v-2.431c0-0.384 0.311-0.695 0.695-0.695h2.431c0.383 0 0.695 0.311 0.695 0.695v2.431c0 0.383-0.311 0.695-0.695 0.695zM7.682 2.734c1.071 0 1.939 0.869 1.939 1.94s-0.869 1.94-1.939 1.94c-1.071 0-1.94-0.869-1.94-1.94s0.869-1.94 1.94-1.94v0zM23.737 2.734c1.071 0 1.94 0.869 1.94 1.94s-0.869 1.94-1.94 1.94c-1.071 0-1.94-0.869-1.94-1.94s0.869-1.94 1.94-1.94v0zM29.567 0.5h-27.133c-1.344 0-2.433 1.089-2.433 2.433v25.74c0 1.344 1.089 2.433 2.433 2.433h27.133c1.344 0 2.433-1.089 2.433-2.433v-25.74c0-1.344-1.090-2.433-2.433-2.433v0z"></path>
</symbol>
<symbol id="icon-cards" viewBox="0 0 32 32">
<title>cards</title>
<path d="M32 24.002v7.998h-32v-7.998h32zM32 12.002v7.998h-32v-7.998h32zM32 0.002v8h-32v-8h32z"></path>
</symbol>
<symbol id="icon-checkmark" viewBox="0 0 32 32">
<title>checkmark</title>
<path d="M10.495 27.704c-0.489 0.003-0.958-0.192-1.305-0.541l-9.19-9.325 2.592-2.63 7.903 8.001 18.913-19.209 2.592 2.629-20.218 20.515c-0.339 0.351-0.802 0.552-1.287 0.559z"></path>
</symbol>
<symbol id="icon-close" viewBox="0 0 32 32">
<title>close</title>
<path d="M29.101 0l-13.099 13.102-13.102-13.099-2.899 2.897 13.099 13.105-13.097 13.099 2.897 2.897 13.102-13.102 13.099 13.102 2.897-2.897-13.099-13.099 13.102-13.105z"></path>
</symbol>
<symbol id="icon-copy" viewBox="0 0 26 32">
<title>copy</title>
<path d="M11.861 0.678c1.859 0 3.388 1.456 3.506 3.286l7.677 0.001v9.312l2.8 0.001v18.044h-16.644l-0.001-2.8h-8.521v-24.558l7.677-0.001c0.118-1.83 1.647-3.286 3.506-3.286zM23.199 15.922h-11.356l0.001 12.6h-0.001v0.155h11.356v-12.755zM19.804 24.596v2.022h-6.574v-2.022h6.574zM5.608 6.609h-2.286v19.268h5.877l0.001-12.599 11.199-0.001v-6.668h-2.286l0.001 0.869c0 1.28-1 2.331-2.259 2.413l-0.159 0.005h-7.67c-1.28 0-2.331-1-2.413-2.259l-0.005-0.159v-0.869zM21.996 21.485v2.022h-8.765v-2.022h8.765zM21.996 18.374v2.022h-8.765v-2.022h8.765zM15.469 6.609h-7.217v0.642h7.217v-0.642zM11.861 3.322c-0.396 0-0.736 0.275-0.838 0.641h1.676c-0.102-0.367-0.442-0.641-0.838-0.641z"></path>
</symbol>
<symbol id="icon-cut" viewBox="0 0 28 32">
<title>cut</title>
<path d="M5.154 0.853c-2.028 1.419-2.562 4.242-1.142 6.269l7.302 10.425-2.656 3.791c-2.438-1.412-5.593-0.748-7.239 1.603-1.738 2.482-1.135 5.901 1.347 7.639s5.904 1.135 7.642-1.347c1.193-1.703 1.282-3.848 0.419-5.588l3.252-4.643 3.252 4.643c-0.863 1.74-0.773 3.885 0.419 5.588 1.739 2.482 5.16 3.084 7.642 1.347s3.086-5.158 1.348-7.639c-1.646-2.35-4.801-3.014-7.239-1.603l-2.656-3.791 7.302-10.425c1.42-2.028 0.886-4.85-1.142-6.269l-8.926 12.745-8.927-12.745zM8.771 26.076c0 1.57-1.274 2.844-2.844 2.844s-2.844-1.273-2.844-2.844c0-1.571 1.274-2.844 2.844-2.844s2.844 1.273 2.844 2.844zM25.079 26.076c0 1.57-1.274 2.844-2.844 2.844s-2.844-1.273-2.844-2.844c0-1.571 1.274-2.844 2.844-2.844s2.844 1.273 2.844 2.844z"></path>
</symbol>
<symbol id="icon-document" viewBox="0 0 26 32">
<title>document</title>
<path d="M25.091-0.417v23.591c0 5.087-4.156 9.243-9.243 9.243v0h-15.764v-32.833h25.007zM22.257 2.416h-19.341v27.167h12.932c3.445 0 6.284-2.763 6.405-6.181v0l0.004-0.229v-20.758zM15.196 19.149v2.833h-7.826v-2.833h7.826zM17.804 13.931v2.833h-10.435v-2.833h10.435zM17.804 8.714v2.833h-10.435v-2.833h10.435z"></path>
</symbol>
<symbol id="icon-edit" viewBox="0 0 32 32">
<title>edit</title>
<path d="M0.889 24.816v6.295h6.295l18.567-18.567-6.295-6.295-18.567 18.567zM30.62 7.675c0.655-0.655 0.655-1.712 0-2.367l-3.928-3.928c-0.655-0.655-1.712-0.655-2.367 0l-3.072 3.072 6.295 6.295 3.072-3.072z"></path>
</symbol>
<symbol id="icon-EU" viewBox="0 0 32 32">
<title>EU</title>
<path d="M31.965 0.682v22.013c0 5.214-4.414 8.622-11.781 8.622v0h-20.501v-30.635h32.282zM29.329 3.317h-27.012v25.365h17.866c5.923 0 9.025-2.308 9.143-5.781v0l0.003-0.206v-19.379zM14.415 21.359l5.061 2.615-5.061 2.615v-1.798h-8.474v-1.636h8.474v-1.798zM18.777 6.941v6.14c0 0.974 0.028 1.606 0.085 1.895 0.098 0.464 0.331 0.836 0.7 1.117s0.872 0.421 1.512 0.421c0.65 0 1.139-0.133 1.469-0.398s0.528-0.592 0.595-0.978c0.054-0.309 0.086-0.782 0.096-1.418l0.004-6.779h2.289v5.954l-0.015 1.069c-0.025 0.809-0.082 1.414-0.17 1.816-0.124 0.562-0.352 1.036-0.684 1.423s-0.777 0.695-1.334 0.924c-0.557 0.229-1.284 0.344-2.181 0.344-1.083 0-1.904-0.125-2.463-0.375s-1.001-0.575-1.326-0.974c-0.325-0.4-0.539-0.818-0.642-1.257-0.149-0.65-0.224-1.608-0.224-2.877v-6.047h2.289zM14.347 6.941v1.918h-6.117v2.513h5.691v1.91h-5.691v3.085h6.333v1.91h-8.622v-11.336h8.405z"></path>
</symbol>
<symbol id="icon-external-link" viewBox="0 0 32 32">
<title>external-link</title>
<path d="M14.526 2.964v3.967l-10.543-0.001v21.086h21.086v-10.542h3.967v14.51h-29.019v-29.019h14.51zM31.983 0.017v12.299h-3.967l-0.001-5.528-14.297 14.299-2.805-2.805 14.297-14.299-5.526 0.001v-3.967h12.299z"></path>
</symbol>
<symbol id="icon-format_align_center" viewBox="0 0 32 32">
<title>format_align_center</title>
<path d="M7.111 21.333v3.556h17.778v-3.556h-17.778zM0 32h32v-3.556h-32v3.556zM0 17.778h32v-3.556h-32v3.556zM7.111 7.111v3.556h17.778v-3.556h-17.778zM0 0v3.556h32v-3.556h-32z"></path>
</symbol>
<symbol id="icon-format_align_justify" viewBox="0 0 32 32">
<title>format_align_justify</title>
<path d="M0 32h32v-3.556h-32v3.556zM0 24.889h32v-3.556h-32v3.556zM0 17.778h32v-3.556h-32v3.556zM0 10.667h32v-3.556h-32v3.556zM0 0v3.556h32v-3.556h-32z"></path>
</symbol>
<symbol id="icon-format_align_left" viewBox="0 0 32 32">
<title>format_align_left</title>
<path d="M21.333 21.333h-21.333v3.556h21.333v-3.556zM21.333 7.111h-21.333v3.556h21.333v-3.556zM0 17.778h32v-3.556h-32v3.556zM0 32h32v-3.556h-32v3.556zM0 0v3.556h32v-3.556h-32z"></path>
</symbol>
<symbol id="icon-format_align_right" viewBox="0 0 32 32">
<title>format_align_right</title>
<path d="M0 32h32v-3.556h-32v3.556zM10.667 24.889h21.333v-3.556h-21.333v3.556zM0 17.778h32v-3.556h-32v3.556zM10.667 10.667h21.333v-3.556h-21.333v3.556zM0 0v3.556h32v-3.556h-32z"></path>
</symbol>
<symbol id="icon-format_indent_decrease" viewBox="0 0 32 32">
<title>format_indent_decrease</title>
<path d="M14.222 24.889h17.778v-3.556h-17.778v3.556zM0 16l7.111 7.111v-14.222l-7.111 7.111zM0 32h32v-3.556h-32v3.556zM0 0v3.556h32v-3.556h-32zM14.222 10.667h17.778v-3.556h-17.778v3.556zM14.222 17.778h17.778v-3.556h-17.778v3.556z"></path>
</symbol>
<symbol id="icon-format_indent_increase" viewBox="0 0 32 32">
<title>format_indent_increase</title>
<path d="M0 32h32v-3.556h-32v3.556zM0 8.889v14.222l7.111-7.111-7.111-7.111zM14.222 24.889h17.778v-3.556h-17.778v3.556zM0 0v3.556h32v-3.556h-32zM14.222 10.667h17.778v-3.556h-17.778v3.556zM14.222 17.778h17.778v-3.556h-17.778v3.556z"></path>
</symbol>
<symbol id="icon-format_list_bulleted" viewBox="0 0 32 32">
<title>format_list_bulleted</title>
<path d="M2.521 13.085c-1.395 0-2.521 1.126-2.521 2.521s1.126 2.521 2.521 2.521c1.395 0 2.521-1.126 2.521-2.521s-1.126-2.521-2.521-2.521zM2.521 3c-1.395 0-2.521 1.126-2.521 2.521s1.126 2.521 2.521 2.521c1.395 0 2.521-1.126 2.521-2.521s-1.126-2.521-2.521-2.521zM2.521 23.17c-1.395 0-2.521 1.143-2.521 2.521s1.143 2.521 2.521 2.521c1.378 0 2.521-1.143 2.521-2.521s-1.126-2.521-2.521-2.521zM7.564 27.372h23.531v-3.362h-23.531v3.362zM7.564 17.287h23.531v-3.362h-23.531v3.362zM7.564 3.84v3.362h23.531v-3.362h-23.531z"></path>
</symbol>
<symbol id="icon-format_list_numbered" viewBox="0 0 32 32">
<title>format_list_numbered</title>
<path d="M0 24.086h3.388v0.847h-1.694v1.694h1.694v0.847h-3.388v1.694h5.082v-6.776h-5.082v1.694zM1.694 8.84h1.694v-6.776h-3.388v1.694h1.694v5.082zM0 13.922h3.049l-3.049 3.557v1.525h5.082v-1.694h-3.049l3.049-3.557v-1.525h-5.082v1.694zM8.47 3.758v3.388h23.715v-3.388h-23.715zM8.47 27.474h23.715v-3.388h-23.715v3.388zM8.47 17.31h23.715v-3.388h-23.715v3.388z"></path>
</symbol>
<symbol id="icon-forward" viewBox="0 0 32 32">
<title>forward</title>
<path d="M23.812 1.802l8.584 8.584-8.584 8.584-1.728-1.728 5.633-5.634-17.12 0.001c-4.42 0-8.041 3.621-8.041 8.041 0 4.336 3.486 7.904 7.792 8.037l0.249 0.004h7.719v2.444h-7.719c-5.77 0-10.485-4.716-10.485-10.485 0-5.675 4.562-10.331 10.203-10.482l0.283-0.004h17.12l-5.633-5.633 1.728-1.728z"></path>
</symbol>
<symbol id="icon-fullscreen" viewBox="0 0 33 32">
<title>fullscreen</title>
<path d="M11.746 19.103l1.781 1.781-8.487 8.486 6.077 0.001v2.519h-10.376v-10.376h2.519l-0.001 6.076 8.487-8.486zM21.916 19.137l7.694 8.286 0.001-5.91h2.519v10.376h-10.376v-2.519l6.229-0.001-7.911-8.519 1.846-1.714zM32.129 0.424v10.452h-2.519l-0.001-6.138-8.483 8.545-1.787-1.774 8.505-8.566-6.092 0.001v-2.519h10.376zM11.117 0.424v2.519l-6.093-0.001 8.506 8.566-1.787 1.774-8.484-8.545 0.001 6.138h-2.519v-10.452h10.376z"></path>
</symbol>
<symbol id="icon-history" viewBox="0 0 32 32">
<title>history</title>
<path d="M16 0.678c8.461 0 15.322 6.862 15.322 15.322s-6.862 15.322-15.322 15.322c-8.355 0-15.15-6.691-15.319-15.006l-0.003-0.316h2.644c0 7 5.678 12.678 12.678 12.678s12.678-5.678 12.678-12.678c0-7-5.678-12.678-12.678-12.678-5.103 0-7.983 1.955-11.472 6.789l4.776 0.001v2.644h-8.627v-8.627h2.644v3.184c3.59-4.586 7.037-6.636 12.678-6.636zM17.931 6.87v12.279h-8.627v-2.644l5.982-0.001v-9.633h2.644z"></path>
</symbol>
<symbol id="icon-insert-link" viewBox="0 0 32 32">
<title>insert-link</title>
<path d="M19.017 12.719c2.681 2.764 2.742 7.121 0.178 9.963l-0.183 0.196-6.144 6.273c-1.325 1.36-3.144 2.127-5.043 2.127s-3.717-0.767-5.042-2.127c-2.7-2.768-2.761-7.147-0.195-9.977l4.277-4.497 1.964 1.869-4.105 4.314c-1.736 1.78-1.736 4.619 0 6.399 0.815 0.836 1.933 1.308 3.101 1.308 1.090 0 2.137-0.411 2.936-1.148l0.167-0.163 6.141-6.27c1.668-1.72 1.722-4.421 0.161-6.204l-0.161-0.175 1.946-1.887zM24.575 0.289c1.899 0 3.717 0.767 5.042 2.127 2.7 2.768 2.761 7.147 0.208 9.963l-0.182 0.194-4.253 4.603-1.991-1.84 4.278-4.63c1.736-1.78 1.736-4.619 0-6.399-0.815-0.836-1.933-1.308-3.101-1.308-1.090 0-2.137 0.411-2.937 1.149l-0.168 0.163-6.357 6.474c-1.523 1.563-1.728 3.973-0.519 5.765l0.135 0.188 0.004-0.002c0.079 0.104 0.162 0.205 0.249 0.302l0.134 0.143-1.935 1.899c-0.146-0.149-0.286-0.304-0.419-0.465l-0.194-0.246 1.962-1.482-1.97 1.479c-2.102-2.803-1.91-6.691 0.426-9.275l0.189-0.201 6.358-6.474c1.325-1.36 3.144-2.127 5.043-2.127z"></path>
</symbol>
<symbol id="icon-italic" viewBox="0 0 32 32">
<title>italic</title>
<path d="M26.278 0.269v3.052l-4.52-0.001-7.988 25.941 4.115 0.001v3.052h-12.208v-3.052l4.9-0.001 7.988-25.941-4.495 0.001v-3.052h12.208z"></path>
</symbol>
<symbol id="icon-KT" viewBox="0 0 32 32">
<title>KT</title>
<path d="M31.624 1.197v21.771c0 5.157-4.366 8.527-11.652 8.527v0h-20.276v-30.299h31.928zM29.018 3.803h-26.715v25.086h17.67c5.855 0 8.924-2.28 9.042-5.714v0l0.004-0.207v-19.165zM8.189 7.387v5.064l4.651-5.064h3.096l-4.294 4.441 4.527 6.961h-2.979l-3.135-5.351-1.867 1.906v3.446h-2.302v-11.403h2.302zM25.604 7.387v1.929h-3.376v9.474h-2.302v-9.474h-3.383v-1.929h9.062z"></path>
</symbol>
<symbol id="icon-link-off" viewBox="0 0 32 32">
<title>link-off</title>
<path d="M21.096 26.337v5.267h-2.686v-5.267h2.686zM7.418 14.854l1.902 1.897-4.825 4.838c-1.536 1.524-1.549 4.003-0.033 5.539 0.736 0.74 1.737 1.156 2.781 1.156 0.969 0 1.902-0.359 2.621-1.004l0.162-0.154 4.826-4.833 1.901 1.898-4.825 4.831c-1.241 1.246-2.927 1.947-4.685 1.947s-3.445-0.701-4.689-1.951c-2.499-2.532-2.538-6.573-0.136-9.147l0.18-0.186 4.82-4.833zM24.548 22.649l3.727 3.727-1.9 1.9-3.727-3.727 1.9-1.9zM31.605 18.41v2.686h-5.597v-2.686h5.597zM24.326 0.633c1.768 0 3.463 0.703 4.711 1.951 1.253 1.249 1.953 2.948 1.943 4.716-0.009 1.67-0.65 3.272-1.776 4.475l-0.204 0.208-4.754 4.767-1.902-1.897 4.767-4.78c0.751-0.733 1.177-1.737 1.183-2.787s-0.41-2.058-1.155-2.802c-0.746-0.746-1.758-1.166-2.813-1.166-0.98 0-1.922 0.362-2.649 1.010l-0.164 0.155-4.761 4.767-1.901-1.898 4.761-4.767c1.25-1.25 2.945-1.953 4.713-1.953zM5.597 10.509v2.686h-5.597v-2.686h5.597zM5.23 3.225l3.727 3.727-1.9 1.9-3.727-3.727 1.9-1.9zM13.195 0v5.597h-2.686v-5.597h2.686z"></path>
</symbol>
<symbol id="icon-omega" viewBox="0 0 32 32">
<title>omega</title>
<path d="M15.98 2.006c-8.624 0.207-14.518 6.052-14.518 14.414 0 3.155 0.918 6.327 2.61 9.021l1.030 1.64h-5.103v2.918h10.132v-2.316l-0.546-0.438c-3.214-2.573-5.128-6.314-5.128-10.826 0-6.93 4.772-11.501 11.995-11.501 7.060 0 11.565 4.346 11.565 11.167 0 4.669-1.898 8.495-5.182 11.169l-0.535 0.436v2.309h9.699v-2.918h-4.707l1.051-1.647c1.776-2.784 2.673-5.918 2.673-9.349 0-8.309-5.581-13.88-14.083-14.080l-0.479-0.006-0.474 0.006z"></path>
</symbol>
<symbol id="icon-paste" viewBox="0 0 32 32">
<title>paste</title>
<path d="M3.217 28.678v0.104l0.105 0.001v1.217h-0.105v1.322h-2.54v-2.54l1.322-0.001v-0.104h1.217zM17.571 28.468l1.105 2.403c-0.612 0.281-1.276 0.436-1.986 0.451v0l-1.11 0.001-0.002-2.644 1.082-0.001c0.319-0.007 0.627-0.079 0.911-0.21v0zM13.078 28.678v2.644h-2.502v-2.644h2.502zM8.074 28.678v2.644h-2.502v-2.644h2.502zM21.583 25.459v0.889c0 0.75-0.169 1.481-0.489 2.146v0l-2.383-1.146c0.149-0.31 0.227-0.649 0.227-1v0-0.889h2.644zM3.322 23.785v2.502h-2.644v-2.502h2.644zM31.322 0.678v16.54c0 2.363-1.819 4.252-4.152 4.361l-0.213 0.005h-5.374v1.375h-2.644v-2.502l1.93-0.001 0.001-1.516h6.087c0.923 0 1.642-0.671 1.715-1.569l0.006-0.152-0.001-13.895h-13.894c-0.923 0-1.642 0.671-1.715 1.569l-0.006 0.152v6.087l-1.377-0.001v1.932h-2.502v-2.644h1.233v-5.373c0-2.363 1.819-4.252 4.152-4.361l0.213-0.005h16.54zM3.322 18.782v2.502h-2.644v-2.502h2.644zM21.583 15.452v2.502h-2.644v-2.502h2.644zM1.167 13.245l2.383 1.146c-0.149 0.31-0.227 0.649-0.227 0.999v0 0.889h-2.644v-0.889c0-0.75 0.169-1.481 0.489-2.146v0zM6.681 10.417l0.002 2.644-1.082 0.001c-0.319 0.007-0.627 0.079-0.911 0.21v0l-1.105-2.403c0.612-0.281 1.276-0.436 1.986-0.451v0l1.11-0.001zM16.689 10.417v2.644h-2.502v-2.644h2.502zM21.583 10.417v2.54l-1.323-0.001 0.001 0.105h-1.217v-0.105l-0.104 0.001v-1.217h0.104v-1.322h2.54z"></path>
</symbol>
<symbol id="icon-plus" viewBox="0 0 32 32">
<title>plus</title>
<path d="M14 0v13.998h-14v4.002h14v13.996h4v-13.996h14v-4.002h-14v-13.998z"></path>
</symbol>
<symbol id="icon-print-layout" viewBox="0 0 32 32">
<title>print-layout</title>
<path d="M30 0c1.105 0 2 0.895 2 2v28c0 1.105-0.895 2-2 2h-28c-1.105 0-2-0.895-2-2v-28c0-1.105 0.895-2 2-2h28zM30 1h-28c-0.552 0-1 0.448-1 1v28c0 0.552 0.448 1 1 1h28c0.552 0 1-0.448 1-1v-28c0-0.552-0.448-1-1-1zM26 22.667v2.667h-20v-2.667h20zM26 17.333v2.667h-20v-2.667h20zM26 12v2.667h-20v-2.667h20zM26 6.667v2.667h-20v-2.667h20z"></path>
</symbol>
<symbol id="icon-RS" viewBox="0 0 32 32">
<title>RS</title>
<path d="M31.965 0.682v22.013c0 5.214-4.414 8.622-11.781 8.622v0h-20.501v-30.635h32.282zM29.329 3.317h-27.012v25.365h17.866c5.923 0 9.025-2.308 9.143-5.781v0l0.003-0.206v-19.379zM14.415 21.359l5.061 2.615-5.061 2.615v-1.798h-8.474v-1.636h8.474v-1.798zM21.864 6.941c1.471 0 2.579 0.307 3.323 0.92s1.134 1.431 1.172 2.455l-2.367 0.099c-0.101-0.573-0.319-0.984-0.652-1.235s-0.833-0.376-1.5-0.376c-0.688 0-1.226 0.134-1.615 0.403-0.251 0.172-0.376 0.403-0.376 0.692 0 0.263 0.117 0.489 0.352 0.676 0.256 0.204 0.825 0.416 1.708 0.635l0.467 0.11c1.152 0.258 2.003 0.526 2.555 0.802s0.984 0.654 1.296 1.132c0.312 0.479 0.468 1.070 0.468 1.775 0 0.638-0.187 1.236-0.56 1.794s-0.901 0.972-1.583 1.243c-0.682 0.271-1.533 0.407-2.551 0.407-1.482 0-2.62-0.326-3.415-0.977s-1.269-1.6-1.424-2.846l2.303-0.213c0.139 0.735 0.42 1.274 0.844 1.619s0.996 0.517 1.715 0.517c0.762 0 1.337-0.153 1.723-0.46s0.58-0.665 0.58-1.075c0-0.263-0.081-0.488-0.244-0.673s-0.447-0.346-0.852-0.483l-0.395-0.115c-0.171-0.046-0.382-0.1-0.632-0.162l-0.868-0.209c-1.269-0.299-2.159-0.666-2.671-1.102-0.72-0.613-1.080-1.36-1.080-2.242 0-0.567 0.169-1.098 0.508-1.592s0.826-0.87 1.463-1.129c0.637-0.258 1.406-0.388 2.307-0.388zM10.923 7.131c1.253 0 2.163 0.1 2.731 0.3s1.022 0.556 1.364 1.068c0.341 0.512 0.512 1.097 0.512 1.756 0 0.836-0.259 1.526-0.776 2.071s-1.29 0.888-2.319 1.030c0.521 0.29 0.938 0.599 1.268 0.935 0.333 0.339 0.782 0.942 1.348 1.809l1.431 2.174h-2.831l-2.185-3.089c-0.356-0.488-0.614-0.813-0.774-0.974-0.224-0.225-0.461-0.38-0.712-0.464s-0.648-0.125-1.192-0.125h-0.48v4.651h-2.367v-11.142h4.982zM8.308 9.016v2.827h1.751c1.136 0 1.845-0.046 2.127-0.137s0.504-0.248 0.664-0.471c0.16-0.223 0.24-0.502 0.24-0.836 0-0.375-0.105-0.678-0.316-0.908s-0.508-0.376-0.892-0.437l-0.259-0.019c-0.235-0.010-0.595-0.017-1.081-0.019l-2.235-0.001z"></path>
</symbol>
<symbol id="icon-search" viewBox="0 0 32 32">
<title>search</title>
<path d="M2.837 14.126c0-6.225 5.064-11.289 11.289-11.289s11.289 5.064 11.289 11.289c0 6.225-5.064 11.289-11.289 11.289s-11.289-5.064-11.289-11.289v0zM25.031 23.096c2.012-2.441 3.221-5.567 3.221-8.97 0-7.789-6.337-14.126-14.126-14.126s-14.126 6.337-14.126 14.126c0 7.789 6.337 14.126 14.126 14.126 3.367 0 6.461-1.184 8.891-3.158l6.566 6.495c0.277 0.273 0.637 0.41 0.998 0.41 0.366 0 0.731-0.141 1.009-0.421 0.551-0.557 0.546-1.455-0.011-2.006l-6.548-6.477z"></path>
</symbol>
<symbol id="icon-settings" viewBox="0 0 32 32">
<title>settings</title>
<path d="M9.258 15.484c0-3.41 2.784-6.193 6.194-6.193s6.193 2.784 6.193 6.193c0 3.41-2.784 6.194-6.193 6.194s-6.194-2.784-6.194-6.194zM11.85 30.273l0.81-1.167c0.743-1.067 1.992-1.634 3.274-1.634h0.068c1.317 0 2.532 0.567 3.275 1.634l0.81 1.167c0.473 0.7 1.418 0.9 2.127 0.467l3.544-2.034c0.742-0.401 1.013-1.301 0.641-2.068l-0.608-1.267c-0.54-1.134-0.506-2.434 0.135-3.502 0.033-0.067 0.101-0.167 0.135-0.234 0.608-1.1 1.755-1.801 3.005-1.901l1.418-0.1c0.844-0.067 1.485-0.767 1.485-1.567v-4.102c0-0.834-0.641-1.534-1.485-1.567l-1.418-0.1c-1.249-0.1-2.397-0.8-3.005-1.901-0.033-0.067-0.101-0.167-0.135-0.233-0.642-1.067-0.675-2.401-0.135-3.502l0.642-1.3c0.371-0.734 0.067-1.634-0.642-2.068l-3.578-2.034c-0.743-0.4-1.654-0.2-2.127 0.467l-0.81 1.167c-0.743 1.067-1.992 1.634-3.275 1.634h-0.068c-1.316 0-2.532-0.567-3.274-1.634l-0.81-1.167c-0.473-0.7-1.418-0.9-2.127-0.467l-3.544 2.034c-0.743 0.401-1.013 1.301-0.642 2.068l0.608 1.267c0.54 1.134 0.506 2.434-0.135 3.502-0.034 0.067-0.102 0.167-0.135 0.234-0.607 1.1-1.755 1.8-3.004 1.901l-1.417 0.1c-0.844 0.067-1.486 0.767-1.486 1.567v4.068c0 0.834 0.642 1.534 1.486 1.567l1.417 0.1c1.249 0.1 2.397 0.8 3.004 1.901 0.034 0.067 0.101 0.167 0.135 0.233 0.641 1.067 0.675 2.401 0.135 3.502l-0.608 1.267c-0.371 0.734-0.067 1.634 0.642 2.068l3.578 2.034c0.709 0.467 1.62 0.267 2.093-0.4z"></path>
</symbol>
<symbol id="icon-sidebar" viewBox="0 0 32 32">
<title>sidebar</title>
<path d="M31.8 3.533v25.223h-31.6v-25.223h31.6zM16.968 5.799h-14.502v20.69h14.502v-20.69zM29.533 5.8h-10.298v20.69h10.298v-20.69zM25.99 14.548v2.267h-5.101v-2.267h5.101zM27.691 11.147v2.267h-6.802v-2.267h6.802zM27.691 7.746v2.267h-6.802v-2.267h6.802z"></path>
</symbol>
<symbol id="icon-something" viewBox="0 0 26 32">
<title>something</title>
<path d="M11.861 0.678c1.859 0 3.388 1.456 3.506 3.286l7.677 0.001v9.312l2.8 0.001v18.044h-16.644l-0.001-2.8h-8.521v-24.558l7.677-0.001c0.118-1.83 1.647-3.286 3.506-3.286zM23.199 15.922h-11.356l0.001 12.6h-0.001v0.155h11.356v-12.755zM14.862 19.111l0.767 4.309 0.125 0.964h0.078l1.159-3.407h1.3l1.174 3.407h0.078l0.141-1.338 0.642-3.936h1.832l-1.582 7.778h-2.051l-0.877-3.080h-0.078l-0.987 3.080h-2.114l-1.644-7.778h2.036zM5.608 6.609h-2.286v19.268h5.877l0.001-12.599 11.199-0.001v-6.668h-2.286l0.001 0.869c0 1.28-1 2.331-2.259 2.413l-0.159 0.005h-7.67c-1.28 0-2.331-1-2.413-2.259l-0.005-0.159v-0.869zM15.469 6.609h-7.217v0.642h7.217v-0.642zM11.861 3.322c-0.396 0-0.736 0.275-0.838 0.641h1.676c-0.102-0.367-0.442-0.641-0.838-0.641z"></path>
</symbol>
<symbol id="icon-sort" viewBox="0 0 25 32">
<title>sort</title>
<path d="M12.138 31.241c-0.689 0-1.372-0.231-1.906-0.695l-9.354-8.11c-0.555-0.478-0.874-1.159-0.877-1.866 0-0.706 0.319-1.389 0.877-1.873 1.071-0.928 2.744-0.928 3.813 0l7.448 6.454 7.448-6.454c1.076-0.934 2.756-0.928 3.82 0.004 0.551 0.479 0.87 1.16 0.87 1.865 0 0.707-0.32 1.388-0.878 1.872l-9.35 8.108c-0.539 0.465-1.222 0.695-1.91 0.695z"></path>
<path d="M21.495 13.241c-0.689 0-1.375-0.233-1.91-0.698l-7.448-6.453-7.447 6.453c-1.071 0.928-2.744 0.928-3.814 0-0.559-0.483-0.876-1.166-0.876-1.872 0.003-0.707 0.321-1.388 0.876-1.868l9.355-8.105c1.071-0.931 2.747-0.931 3.817 0l9.35 8.105c0.56 0.483 0.879 1.164 0.879 1.871 0 0.705-0.319 1.386-0.879 1.869-0.531 0.466-1.214 0.698-1.902 0.698z"></path>
</symbol>
<symbol id="icon-subscript" viewBox="0 0 32 32">
<title>subscript</title>
<path d="M28.283 23.038c0.907 0 1.605 0.232 2.096 0.692 0.493 0.462 0.744 1.094 0.744 1.888 0 0.34-0.047 0.636-0.141 0.889s-0.223 0.48-0.387 0.68c-0.162 0.197-0.356 0.371-0.579 0.521-0.143 0.096-0.296 0.19-0.458 0.281v0l-0.568 0.302-0.294 0.162-0.216 0.131-0.905 0.644h3.558v1.925h-6.088l0.005-0.554c0.010-0.356 0.036-0.677 0.078-0.964 0.057-0.396 0.164-0.743 0.321-1.041 0.158-0.301 0.371-0.566 0.637-0.794 0.195-0.166 0.429-0.325 0.706-0.476v0l0.299-0.154 0.652-0.315c0.208-0.104 0.39-0.217 0.548-0.343 0.152-0.12 0.274-0.253 0.367-0.401 0.086-0.137 0.128-0.294 0.128-0.473 0-0.232-0.056-0.404-0.193-0.522-0.142-0.121-0.323-0.177-0.548-0.177-0.154 0-0.305 0.022-0.453 0.067-0.153 0.046-0.297 0.108-0.432 0.184-0.139 0.078-0.27 0.165-0.392 0.259s-0.226 0.189-0.312 0.282v0l-0.135 0.146-1.329-1.408 0.107-0.127c0.124-0.147 0.288-0.297 0.495-0.45 0.203-0.15 0.44-0.29 0.711-0.418 0.269-0.127 0.57-0.232 0.903-0.314 0.334-0.083 0.692-0.124 1.074-0.124zM5.561 0.161l6.038 8.723 6.038-8.723h5.4v3.248h-3.889l-5.67 8.19 5.67 8.19h3.889v3.248h-5.4l-6.038-8.723-6.038 8.723h-5.4v-3.248h3.889l5.67-8.19-5.67-8.19h-3.889v-3.248h5.4z"></path>
</symbol>
<symbol id="icon-superscript" viewBox="0 0 32 32">
<title>superscript</title>
<path d="M5.48 7.783l6.128 8.853 6.128-8.853h5.48v3.296h-3.947l-5.754 8.312 5.754 8.312h3.947v3.296h-5.48l-6.128-8.853-6.128 8.853h-5.48v-3.296h3.947l5.754-8.312-5.754-8.312h-3.947v-3.296h5.48zM28.54 0.516c0.921 0 1.629 0.236 2.127 0.702 0.501 0.469 0.755 1.111 0.755 1.916 0 0.345-0.048 0.645-0.143 0.902s-0.226 0.487-0.393 0.69c-0.165 0.2-0.361 0.377-0.588 0.529-0.145 0.098-0.3 0.193-0.465 0.285v0l-0.577 0.307-0.298 0.164-0.219 0.133-0.918 0.654h3.611v1.954h-6.179l0.005-0.562c0.011-0.361 0.037-0.687 0.079-0.978 0.058-0.402 0.167-0.754 0.326-1.057 0.16-0.306 0.376-0.574 0.647-0.806 0.198-0.169 0.436-0.33 0.716-0.484v0l0.304-0.156 0.662-0.32c0.211-0.106 0.395-0.221 0.556-0.348 0.154-0.121 0.278-0.257 0.373-0.407 0.088-0.139 0.13-0.298 0.13-0.48 0-0.236-0.057-0.41-0.196-0.529-0.144-0.123-0.328-0.179-0.556-0.179-0.156 0-0.309 0.023-0.459 0.068-0.155 0.047-0.301 0.109-0.439 0.187-0.142 0.079-0.274 0.167-0.398 0.263s-0.23 0.192-0.317 0.286v0l-0.137 0.148-1.349-1.429 0.108-0.129c0.126-0.149 0.292-0.301 0.503-0.457 0.206-0.153 0.446-0.294 0.722-0.424 0.273-0.129 0.578-0.235 0.916-0.319s0.703-0.126 1.090-0.126z"></path>
</symbol>
<symbol id="icon-table" viewBox="0 0 32 32">
<title>table</title>
<path d="M31.641 27.329v3.828h-23v-3.828h23zM5.526 27.329v3.828h-5.526v-3.828h5.526zM31.641 20.496v3.826h-23v-3.826h23zM5.526 20.496v3.826h-5.526v-3.826h5.526zM31.641 13.665v3.826h-23v-3.826h23zM5.526 13.665v3.826h-5.526v-3.826h5.526zM31.641 6.833v3.826h-23v-3.826h23zM5.526 6.833v3.826h-5.526v-3.826h5.526zM31.641 0v3.826h-23v-3.826h23zM5.526 0v3.826h-5.526v-3.826h5.526z"></path>
</symbol>
<symbol id="icon-trash" viewBox="0 0 27 32">
<title>trash</title>
<path d="M15.074-0.417c1.663 0.003 3.145 1.026 3.742 2.557l0.070 0.194 0.392 1.162h6.809v2.833h-1.261l-0.989 19.785c-0.173 3.455-2.968 6.183-6.397 6.299l-0.235 0.004h-8.326c-3.46 0.004-6.327-2.647-6.618-6.068l-0.016-0.234-0.984-19.784h-1.26v-2.833h6.805l0.387-1.156c0.524-1.578 1.961-2.665 3.609-2.752l0.207-0.006h4.065zM21.989 6.329h-17.892l0.977 19.643c0.098 1.959 1.667 3.51 3.607 3.606l0.195 0.005h8.33c1.962 0.002 3.591-1.485 3.786-3.416l0.015-0.195 0.982-19.643zM10.872 10.066l0.652 14.348-2.83 0.129-0.652-14.348 2.83-0.129zM15.215 10.066l2.83 0.129-0.652 14.348-2.83-0.129 0.652-14.348zM15.072 2.417h-4.061c-0.47 0.001-0.892 0.277-1.084 0.7l-0.047 0.119-0.088 0.26h6.494l-0.088-0.263c-0.148-0.446-0.543-0.76-1.001-0.81l-0.126-0.007z"></path>
</symbol>
<symbol id="icon-underline" viewBox="0 0 32 32">
<title>underline</title>
<path d="M28.522 29.262v3.052h-25.941v-3.052h25.941zM10.21 0.269v3.052l-2.29-0.001 0.001 12.208c0 4.193 3.437 7.63 7.63 7.63 4.109 0 7.492-3.301 7.626-7.379l0.004-0.251-0.001-12.208-2.288 0.001v-3.052h7.63v3.052l-2.289-0.001v12.208c0 5.878-4.803 10.682-10.682 10.682-5.782 0-10.524-4.647-10.678-10.393l-0.004-0.288v-12.208l-2.289 0.001v-3.052h7.63z"></path>
</symbol>
<symbol id="icon-web-layout" viewBox="0 0 32 32">
<title>web-layout</title>
<path d="M29.729 0c1.095 0 1.982 0.887 1.982 1.982l-0.001 16.655c-0.308-0.315-0.639-0.608-0.99-0.877l-0.001-15.778c0-0.547-0.444-0.991-0.991-0.991h-27.747c-0.547 0-0.991 0.444-0.991 0.991v27.747c0 0.547 0.444 0.991 0.991 0.991l15.779 0.001c0.269 0.35 0.562 0.681 0.877 0.99l-16.655 0.001c-1.095 0-1.982-0.887-1.982-1.982v-27.747c0-1.095 0.887-1.982 1.982-1.982h27.747zM16.24 22.461c-0.25 0.838-0.385 1.725-0.385 2.644v0h-9.91v-2.643zM20.347 17.175c-1.118 0.673-2.083 1.577-2.829 2.644h-11.572v-2.643zM25.765 11.892v2.643h-19.819v-2.643h19.819zM25.765 6.606v2.643h-19.819v-2.643h19.819z"></path>
<path d="M25.105 18.498c3.643 0 6.606 2.963 6.606 6.606s-2.964 6.606-6.606 6.606c-3.643 0-6.606-2.963-6.606-6.606s2.964-6.606 6.606-6.606zM23.338 19.929c-2.151 0.737-3.703 2.778-3.703 5.175v0.011c0.4 0.026 1.128 0.11 1.162 0.384 0.047 0.379 0 0.852 0.331 0.994s0.426-0.568 0.71-0.379c0.284 0.189 1.042 0.372 1.042 0.707s-0.142 0.856 0 0.951 0.71 0.758 0.71 0.852c0 0.095 0.2 0.576 0.14 0.76-0.049 0.153-0.299 0.627-0.541 0.842 0.596 0.223 1.241 0.346 1.914 0.346 3.016 0 5.47-2.454 5.47-5.47 0-0.893-0.217-1.736-0.598-2.482 0.037 0.556 0.012 1.063 0.134 1.229 0.533 0.726-1.299 1.225-1.020 2.323 0.123 0.484-1.218 0.331-1.546 0.784s-1.128 0.149-1.314 0.062-0.897 0.203-0.834-0.29c0.062-0.494 0.494-0.523 0.958-0.726s1.132-0.878 0.804-0.966c-1.547-0.415-2.075-1.869-2.075-1.869-0.093-0.017-0.070-1.028-0.471-1.057s-0.619 0.116-1.206 0c-0.588-0.116-0.464-0.494-0.556-1.307s0.248-0.552 0.431-0.813c0.016-0.023 0.037-0.043 0.057-0.064z"></path>
</symbol>
</defs>
</svg>
