<!-- Generated by IcoMoon.io -->
<svg version="1.1" xmlns="http://www.w3.org/2000/svg" width="32" height="32" viewBox="0 0 32 32">
<title>insert-link</title>
<path d="M19.017 12.719c2.681 2.764 2.742 7.121 0.178 9.963l-0.183 0.196-6.144 6.273c-1.325 1.36-3.144 2.127-5.043 2.127s-3.717-0.767-5.042-2.127c-2.7-2.768-2.761-7.147-0.195-9.977l4.277-4.497 1.964 1.869-4.105 4.314c-1.736 1.78-1.736 4.619 0 6.399 0.815 0.836 1.933 1.308 3.101 1.308 1.090 0 2.137-0.411 2.936-1.148l0.167-0.163 6.141-6.27c1.668-1.72 1.722-4.421 0.161-6.204l-0.161-0.175 1.946-1.887zM24.575 0.289c1.899 0 3.717 0.767 5.042 2.127 2.7 2.768 2.761 7.147 0.208 9.963l-0.182 0.194-4.253 4.603-1.991-1.84 4.278-4.63c1.736-1.78 1.736-4.619 0-6.399-0.815-0.836-1.933-1.308-3.101-1.308-1.090 0-2.137 0.411-2.937 1.149l-0.168 0.163-6.357 6.474c-1.523 1.563-1.728 3.973-0.519 5.765l0.135 0.188 0.004-0.002c0.079 0.104 0.162 0.205 0.249 0.302l0.134 0.143-1.935 1.899c-0.146-0.149-0.286-0.304-0.419-0.465l-0.194-0.246 1.962-1.482-1.97 1.479c-2.102-2.803-1.91-6.691 0.426-9.275l0.189-0.201 6.358-6.474c1.325-1.36 3.144-2.127 5.043-2.127z"></path>
</svg>
