<!-- Generated by IcoMoon.io -->
<svg version="1.1" xmlns="http://www.w3.org/2000/svg" width="32" height="32" viewBox="0 0 32 32">
<title>link-off</title>
<path d="M21.096 26.337v5.267h-2.686v-5.267h2.686zM7.418 14.854l1.902 1.897-4.825 4.838c-1.536 1.524-1.549 4.003-0.033 5.539 0.736 0.74 1.737 1.156 2.781 1.156 0.969 0 1.902-0.359 2.621-1.004l0.162-0.154 4.826-4.833 1.901 1.898-4.825 4.831c-1.241 1.246-2.927 1.947-4.685 1.947s-3.445-0.701-4.689-1.951c-2.499-2.532-2.538-6.573-0.136-9.147l0.18-0.186 4.82-4.833zM24.548 22.649l3.727 3.727-1.9 1.9-3.727-3.727 1.9-1.9zM31.605 18.41v2.686h-5.597v-2.686h5.597zM24.326 0.633c1.768 0 3.463 0.703 4.711 1.951 1.253 1.249 1.953 2.948 1.943 4.716-0.009 1.67-0.65 3.272-1.776 4.475l-0.204 0.208-4.754 4.767-1.902-1.897 4.767-4.78c0.751-0.733 1.177-1.737 1.183-2.787s-0.41-2.058-1.155-2.802c-0.746-0.746-1.758-1.166-2.813-1.166-0.98 0-1.922 0.362-2.649 1.010l-0.164 0.155-4.761 4.767-1.901-1.898 4.761-4.767c1.25-1.25 2.945-1.953 4.713-1.953zM5.597 10.509v2.686h-5.597v-2.686h5.597zM5.23 3.225l3.727 3.727-1.9 1.9-3.727-3.727 1.9-1.9zM13.195 0v5.597h-2.686v-5.597h2.686z"></path>
</svg>
