<!-- Generated by IcoMoon.io -->
<svg version="1.1" xmlns="http://www.w3.org/2000/svg" width="32" height="32" viewBox="0 0 32 32">
<title>omega</title>
<path d="M15.98 2.006c-8.624 0.207-14.518 6.052-14.518 14.414 0 3.155 0.918 6.327 2.61 9.021l1.030 1.64h-5.103v2.918h10.132v-2.316l-0.546-0.438c-3.214-2.573-5.128-6.314-5.128-10.826 0-6.93 4.772-11.501 11.995-11.501 7.060 0 11.565 4.346 11.565 11.167 0 4.669-1.898 8.495-5.182 11.169l-0.535 0.436v2.309h9.699v-2.918h-4.707l1.051-1.647c1.776-2.784 2.673-5.918 2.673-9.349 0-8.309-5.581-13.88-14.083-14.080l-0.479-0.006-0.474 0.006z"></path>
</svg>
