<!-- Generated by IcoMoon.io -->
<svg version="1.1" xmlns="http://www.w3.org/2000/svg" width="32" height="32" viewBox="0 0 32 32">
<title>paste</title>
<path d="M3.217 28.678v0.104l0.105 0.001v1.217h-0.105v1.322h-2.54v-2.54l1.322-0.001v-0.104h1.217zM17.571 28.468l1.105 2.403c-0.612 0.281-1.276 0.436-1.986 0.451v0l-1.11 0.001-0.002-2.644 1.082-0.001c0.319-0.007 0.627-0.079 0.911-0.21v0zM13.078 28.678v2.644h-2.502v-2.644h2.502zM8.074 28.678v2.644h-2.502v-2.644h2.502zM21.583 25.459v0.889c0 0.75-0.169 1.481-0.489 2.146v0l-2.383-1.146c0.149-0.31 0.227-0.649 0.227-1v0-0.889h2.644zM3.322 23.785v2.502h-2.644v-2.502h2.644zM31.322 0.678v16.54c0 2.363-1.819 4.252-4.152 4.361l-0.213 0.005h-5.374v1.375h-2.644v-2.502l1.93-0.001 0.001-1.516h6.087c0.923 0 1.642-0.671 1.715-1.569l0.006-0.152-0.001-13.895h-13.894c-0.923 0-1.642 0.671-1.715 1.569l-0.006 0.152v6.087l-1.377-0.001v1.932h-2.502v-2.644h1.233v-5.373c0-2.363 1.819-4.252 4.152-4.361l0.213-0.005h16.54zM3.322 18.782v2.502h-2.644v-2.502h2.644zM21.583 15.452v2.502h-2.644v-2.502h2.644zM1.167 13.245l2.383 1.146c-0.149 0.31-0.227 0.649-0.227 0.999v0 0.889h-2.644v-0.889c0-0.75 0.169-1.481 0.489-2.146v0zM6.681 10.417l0.002 2.644-1.082 0.001c-0.319 0.007-0.627 0.079-0.911 0.21v0l-1.105-2.403c0.612-0.281 1.276-0.436 1.986-0.451v0l1.11-0.001zM16.689 10.417v2.644h-2.502v-2.644h2.502zM21.583 10.417v2.54l-1.323-0.001 0.001 0.105h-1.217v-0.105l-0.104 0.001v-1.217h0.104v-1.322h2.54z"></path>
</svg>
