<!-- Generated by IcoMoon.io -->
<svg version="1.1" xmlns="http://www.w3.org/2000/svg" width="32" height="32" viewBox="0 0 32 32">
<title>print-layout</title>
<path d="M30 0c1.105 0 2 0.895 2 2v28c0 1.105-0.895 2-2 2h-28c-1.105 0-2-0.895-2-2v-28c0-1.105 0.895-2 2-2h28zM30 1h-28c-0.552 0-1 0.448-1 1v28c0 0.552 0.448 1 1 1h28c0.552 0 1-0.448 1-1v-28c0-0.552-0.448-1-1-1zM26 22.667v2.667h-20v-2.667h20zM26 17.333v2.667h-20v-2.667h20zM26 12v2.667h-20v-2.667h20zM26 6.667v2.667h-20v-2.667h20z"></path>
</svg>
