<!-- Generated by IcoMoon.io -->
<svg version="1.1" xmlns="http://www.w3.org/2000/svg" width="32" height="32" viewBox="0 0 32 32">
<title>RS</title>
<path d="M31.965 0.682v22.013c0 5.214-4.414 8.622-11.781 8.622v0h-20.501v-30.635h32.282zM29.329 3.317h-27.012v25.365h17.866c5.923 0 9.025-2.308 9.143-5.781v0l0.003-0.206v-19.379zM14.415 21.359l5.061 2.615-5.061 2.615v-1.798h-8.474v-1.636h8.474v-1.798zM21.864 6.941c1.471 0 2.579 0.307 3.323 0.92s1.134 1.431 1.172 2.455l-2.367 0.099c-0.101-0.573-0.319-0.984-0.652-1.235s-0.833-0.376-1.5-0.376c-0.688 0-1.226 0.134-1.615 0.403-0.251 0.172-0.376 0.403-0.376 0.692 0 0.263 0.117 0.489 0.352 0.676 0.256 0.204 0.825 0.416 1.708 0.635l0.467 0.11c1.152 0.258 2.003 0.526 2.555 0.802s0.984 0.654 1.296 1.132c0.312 0.479 0.468 1.070 0.468 1.775 0 0.638-0.187 1.236-0.56 1.794s-0.901 0.972-1.583 1.243c-0.682 0.271-1.533 0.407-2.551 0.407-1.482 0-2.62-0.326-3.415-0.977s-1.269-1.6-1.424-2.846l2.303-0.213c0.139 0.735 0.42 1.274 0.844 1.619s0.996 0.517 1.715 0.517c0.762 0 1.337-0.153 1.723-0.46s0.58-0.665 0.58-1.075c0-0.263-0.081-0.488-0.244-0.673s-0.447-0.346-0.852-0.483l-0.395-0.115c-0.171-0.046-0.382-0.1-0.632-0.162l-0.868-0.209c-1.269-0.299-2.159-0.666-2.671-1.102-0.72-0.613-1.080-1.36-1.080-2.242 0-0.567 0.169-1.098 0.508-1.592s0.826-0.87 1.463-1.129c0.637-0.258 1.406-0.388 2.307-0.388zM10.923 7.131c1.253 0 2.163 0.1 2.731 0.3s1.022 0.556 1.364 1.068c0.341 0.512 0.512 1.097 0.512 1.756 0 0.836-0.259 1.526-0.776 2.071s-1.29 0.888-2.319 1.030c0.521 0.29 0.938 0.599 1.268 0.935 0.333 0.339 0.782 0.942 1.348 1.809l1.431 2.174h-2.831l-2.185-3.089c-0.356-0.488-0.614-0.813-0.774-0.974-0.224-0.225-0.461-0.38-0.712-0.464s-0.648-0.125-1.192-0.125h-0.48v4.651h-2.367v-11.142h4.982zM8.308 9.016v2.827h1.751c1.136 0 1.845-0.046 2.127-0.137s0.504-0.248 0.664-0.471c0.16-0.223 0.24-0.502 0.24-0.836 0-0.375-0.105-0.678-0.316-0.908s-0.508-0.376-0.892-0.437l-0.259-0.019c-0.235-0.010-0.595-0.017-1.081-0.019l-2.235-0.001z"></path>
</svg>
