<!-- Generated by IcoMoon.io -->
<svg version="1.1" xmlns="http://www.w3.org/2000/svg" width="32" height="32" viewBox="0 0 32 32">
<title>search</title>
<path d="M2.837 14.126c0-6.225 5.064-11.289 11.289-11.289s11.289 5.064 11.289 11.289c0 6.225-5.064 11.289-11.289 11.289s-11.289-5.064-11.289-11.289v0zM25.031 23.096c2.012-2.441 3.221-5.567 3.221-8.97 0-7.789-6.337-14.126-14.126-14.126s-14.126 6.337-14.126 14.126c0 7.789 6.337 14.126 14.126 14.126 3.367 0 6.461-1.184 8.891-3.158l6.566 6.495c0.277 0.273 0.637 0.41 0.998 0.41 0.366 0 0.731-0.141 1.009-0.421 0.551-0.557 0.546-1.455-0.011-2.006l-6.548-6.477z"></path>
</svg>
