<!-- Generated by IcoMoon.io -->
<svg version="1.1" xmlns="http://www.w3.org/2000/svg" width="32" height="32" viewBox="0 0 32 32">
<title>settings</title>
<path d="M9.258 15.484c0-3.41 2.784-6.193 6.194-6.193s6.193 2.784 6.193 6.193c0 3.41-2.784 6.194-6.193 6.194s-6.194-2.784-6.194-6.194zM11.85 30.273l0.81-1.167c0.743-1.067 1.992-1.634 3.274-1.634h0.068c1.317 0 2.532 0.567 3.275 1.634l0.81 1.167c0.473 0.7 1.418 0.9 2.127 0.467l3.544-2.034c0.742-0.401 1.013-1.301 0.641-2.068l-0.608-1.267c-0.54-1.134-0.506-2.434 0.135-3.502 0.033-0.067 0.101-0.167 0.135-0.234 0.608-1.1 1.755-1.801 3.005-1.901l1.418-0.1c0.844-0.067 1.485-0.767 1.485-1.567v-4.102c0-0.834-0.641-1.534-1.485-1.567l-1.418-0.1c-1.249-0.1-2.397-0.8-3.005-1.901-0.033-0.067-0.101-0.167-0.135-0.233-0.642-1.067-0.675-2.401-0.135-3.502l0.642-1.3c0.371-0.734 0.067-1.634-0.642-2.068l-3.578-2.034c-0.743-0.4-1.654-0.2-2.127 0.467l-0.81 1.167c-0.743 1.067-1.992 1.634-3.275 1.634h-0.068c-1.316 0-2.532-0.567-3.274-1.634l-0.81-1.167c-0.473-0.7-1.418-0.9-2.127-0.467l-3.544 2.034c-0.743 0.401-1.013 1.301-0.642 2.068l0.608 1.267c0.54 1.134 0.506 2.434-0.135 3.502-0.034 0.067-0.102 0.167-0.135 0.234-0.607 1.1-1.755 1.8-3.004 1.901l-1.417 0.1c-0.844 0.067-1.486 0.767-1.486 1.567v4.068c0 0.834 0.642 1.534 1.486 1.567l1.417 0.1c1.249 0.1 2.397 0.8 3.004 1.901 0.034 0.067 0.101 0.167 0.135 0.233 0.641 1.067 0.675 2.401 0.135 3.502l-0.608 1.267c-0.371 0.734-0.067 1.634 0.642 2.068l3.578 2.034c0.709 0.467 1.62 0.267 2.093-0.4z"></path>
</svg>
