<!-- Generated by IcoMoon.io -->
<svg version="1.1" xmlns="http://www.w3.org/2000/svg" width="25" height="32" viewBox="0 0 25 32">
<title>sort</title>
<path d="M12.138 31.241c-0.689 0-1.372-0.231-1.906-0.695l-9.354-8.11c-0.555-0.478-0.874-1.159-0.877-1.866 0-0.706 0.319-1.389 0.877-1.873 1.071-0.928 2.744-0.928 3.813 0l7.448 6.454 7.448-6.454c1.076-0.934 2.756-0.928 3.82 0.004 0.551 0.479 0.87 1.16 0.87 1.865 0 0.707-0.32 1.388-0.878 1.872l-9.35 8.108c-0.539 0.465-1.222 0.695-1.91 0.695z"></path>
<path d="M21.495 13.241c-0.689 0-1.375-0.233-1.91-0.698l-7.448-6.453-7.447 6.453c-1.071 0.928-2.744 0.928-3.814 0-0.559-0.483-0.876-1.166-0.876-1.872 0.003-0.707 0.321-1.388 0.876-1.868l9.355-8.105c1.071-0.931 2.747-0.931 3.817 0l9.35 8.105c0.56 0.483 0.879 1.164 0.879 1.871 0 0.705-0.319 1.386-0.879 1.869-0.531 0.466-1.214 0.698-1.902 0.698z"></path>
</svg>
