<!-- Generated by IcoMoon.io -->
<svg version="1.1" xmlns="http://www.w3.org/2000/svg" width="32" height="32" viewBox="0 0 32 32">
<title>subscript</title>
<path d="M28.283 23.038c0.907 0 1.605 0.232 2.096 0.692 0.493 0.462 0.744 1.094 0.744 1.888 0 0.34-0.047 0.636-0.141 0.889s-0.223 0.48-0.387 0.68c-0.162 0.197-0.356 0.371-0.579 0.521-0.143 0.096-0.296 0.19-0.458 0.281v0l-0.568 0.302-0.294 0.162-0.216 0.131-0.905 0.644h3.558v1.925h-6.088l0.005-0.554c0.010-0.356 0.036-0.677 0.078-0.964 0.057-0.396 0.164-0.743 0.321-1.041 0.158-0.301 0.371-0.566 0.637-0.794 0.195-0.166 0.429-0.325 0.706-0.476v0l0.299-0.154 0.652-0.315c0.208-0.104 0.39-0.217 0.548-0.343 0.152-0.12 0.274-0.253 0.367-0.401 0.086-0.137 0.128-0.294 0.128-0.473 0-0.232-0.056-0.404-0.193-0.522-0.142-0.121-0.323-0.177-0.548-0.177-0.154 0-0.305 0.022-0.453 0.067-0.153 0.046-0.297 0.108-0.432 0.184-0.139 0.078-0.27 0.165-0.392 0.259s-0.226 0.189-0.312 0.282v0l-0.135 0.146-1.329-1.408 0.107-0.127c0.124-0.147 0.288-0.297 0.495-0.45 0.203-0.15 0.44-0.29 0.711-0.418 0.269-0.127 0.57-0.232 0.903-0.314 0.334-0.083 0.692-0.124 1.074-0.124zM5.561 0.161l6.038 8.723 6.038-8.723h5.4v3.248h-3.889l-5.67 8.19 5.67 8.19h3.889v3.248h-5.4l-6.038-8.723-6.038 8.723h-5.4v-3.248h3.889l5.67-8.19-5.67-8.19h-3.889v-3.248h5.4z"></path>
</svg>
