<!-- Generated by IcoMoon.io -->
<svg version="1.1" xmlns="http://www.w3.org/2000/svg" width="32" height="32" viewBox="0 0 32 32">
<title>superscript</title>
<path d="M5.48 7.783l6.128 8.853 6.128-8.853h5.48v3.296h-3.947l-5.754 8.312 5.754 8.312h3.947v3.296h-5.48l-6.128-8.853-6.128 8.853h-5.48v-3.296h3.947l5.754-8.312-5.754-8.312h-3.947v-3.296h5.48zM28.54 0.516c0.921 0 1.629 0.236 2.127 0.702 0.501 0.469 0.755 1.111 0.755 1.916 0 0.345-0.048 0.645-0.143 0.902s-0.226 0.487-0.393 0.69c-0.165 0.2-0.361 0.377-0.588 0.529-0.145 0.098-0.3 0.193-0.465 0.285v0l-0.577 0.307-0.298 0.164-0.219 0.133-0.918 0.654h3.611v1.954h-6.179l0.005-0.562c0.011-0.361 0.037-0.687 0.079-0.978 0.058-0.402 0.167-0.754 0.326-1.057 0.16-0.306 0.376-0.574 0.647-0.806 0.198-0.169 0.436-0.33 0.716-0.484v0l0.304-0.156 0.662-0.32c0.211-0.106 0.395-0.221 0.556-0.348 0.154-0.121 0.278-0.257 0.373-0.407 0.088-0.139 0.13-0.298 0.13-0.48 0-0.236-0.057-0.41-0.196-0.529-0.144-0.123-0.328-0.179-0.556-0.179-0.156 0-0.309 0.023-0.459 0.068-0.155 0.047-0.301 0.109-0.439 0.187-0.142 0.079-0.274 0.167-0.398 0.263s-0.23 0.192-0.317 0.286v0l-0.137 0.148-1.349-1.429 0.108-0.129c0.126-0.149 0.292-0.301 0.503-0.457 0.206-0.153 0.446-0.294 0.722-0.424 0.273-0.129 0.578-0.235 0.916-0.319s0.703-0.126 1.090-0.126z"></path>
</svg>
