<!-- Generated by IcoMoon.io -->
<svg version="1.1" xmlns="http://www.w3.org/2000/svg" width="32" height="32" viewBox="0 0 32 32">
<title>table</title>
<path d="M31.641 27.329v3.828h-23v-3.828h23zM5.526 27.329v3.828h-5.526v-3.828h5.526zM31.641 20.496v3.826h-23v-3.826h23zM5.526 20.496v3.826h-5.526v-3.826h5.526zM31.641 13.665v3.826h-23v-3.826h23zM5.526 13.665v3.826h-5.526v-3.826h5.526zM31.641 6.833v3.826h-23v-3.826h23zM5.526 6.833v3.826h-5.526v-3.826h5.526zM31.641 0v3.826h-23v-3.826h23zM5.526 0v3.826h-5.526v-3.826h5.526z"></path>
</svg>
