<!-- Generated by IcoMoon.io -->
<svg version="1.1" xmlns="http://www.w3.org/2000/svg" width="27" height="32" viewBox="0 0 27 32">
<title>trash</title>
<path d="M15.074-0.417c1.663 0.003 3.145 1.026 3.742 2.557l0.070 0.194 0.392 1.162h6.809v2.833h-1.261l-0.989 19.785c-0.173 3.455-2.968 6.183-6.397 6.299l-0.235 0.004h-8.326c-3.46 0.004-6.327-2.647-6.618-6.068l-0.016-0.234-0.984-19.784h-1.26v-2.833h6.805l0.387-1.156c0.524-1.578 1.961-2.665 3.609-2.752l0.207-0.006h4.065zM21.989 6.329h-17.892l0.977 19.643c0.098 1.959 1.667 3.51 3.607 3.606l0.195 0.005h8.33c1.962 0.002 3.591-1.485 3.786-3.416l0.015-0.195 0.982-19.643zM10.872 10.066l0.652 14.348-2.83 0.129-0.652-14.348 2.83-0.129zM15.215 10.066l2.83 0.129-0.652 14.348-2.83-0.129 0.652-14.348zM15.072 2.417h-4.061c-0.47 0.001-0.892 0.277-1.084 0.7l-0.047 0.119-0.088 0.26h6.494l-0.088-0.263c-0.148-0.446-0.543-0.76-1.001-0.81l-0.126-0.007z"></path>
</svg>
