<!-- Generated by IcoMoon.io -->
<svg version="1.1" xmlns="http://www.w3.org/2000/svg" width="32" height="32" viewBox="0 0 32 32">
<title>web-layout</title>
<path d="M29.729 0c1.095 0 1.982 0.887 1.982 1.982l-0.001 16.655c-0.308-0.315-0.639-0.608-0.99-0.877l-0.001-15.778c0-0.547-0.444-0.991-0.991-0.991h-27.747c-0.547 0-0.991 0.444-0.991 0.991v27.747c0 0.547 0.444 0.991 0.991 0.991l15.779 0.001c0.269 0.35 0.562 0.681 0.877 0.99l-16.655 0.001c-1.095 0-1.982-0.887-1.982-1.982v-27.747c0-1.095 0.887-1.982 1.982-1.982h27.747zM16.24 22.461c-0.25 0.838-0.385 1.725-0.385 2.644v0h-9.91v-2.643zM20.347 17.175c-1.118 0.673-2.083 1.577-2.829 2.644h-11.572v-2.643zM25.765 11.892v2.643h-19.819v-2.643h19.819zM25.765 6.606v2.643h-19.819v-2.643h19.819z"></path>
<path d="M25.105 18.498c3.643 0 6.606 2.963 6.606 6.606s-2.964 6.606-6.606 6.606c-3.643 0-6.606-2.963-6.606-6.606s2.964-6.606 6.606-6.606zM23.338 19.929c-2.151 0.737-3.703 2.778-3.703 5.175v0.011c0.4 0.026 1.128 0.11 1.162 0.384 0.047 0.379 0 0.852 0.331 0.994s0.426-0.568 0.71-0.379c0.284 0.189 1.042 0.372 1.042 0.707s-0.142 0.856 0 0.951 0.71 0.758 0.71 0.852c0 0.095 0.2 0.576 0.14 0.76-0.049 0.153-0.299 0.627-0.541 0.842 0.596 0.223 1.241 0.346 1.914 0.346 3.016 0 5.47-2.454 5.47-5.47 0-0.893-0.217-1.736-0.598-2.482 0.037 0.556 0.012 1.063 0.134 1.229 0.533 0.726-1.299 1.225-1.020 2.323 0.123 0.484-1.218 0.331-1.546 0.784s-1.128 0.149-1.314 0.062-0.897 0.203-0.834-0.29c0.062-0.494 0.494-0.523 0.958-0.726s1.132-0.878 0.804-0.966c-1.547-0.415-2.075-1.869-2.075-1.869-0.093-0.017-0.070-1.028-0.471-1.057s-0.619 0.116-1.206 0c-0.588-0.116-0.464-0.494-0.556-1.307s0.248-0.552 0.431-0.813c0.016-0.023 0.037-0.043 0.057-0.064z"></path>
</svg>
